name rise32.9588peak41.5061fall63.4684.mot
datacolumns 19
datarows 26
range 15.98160600000000 16.02326800000000
endheader
time	ground_force1_vx	ground_force1_vy	ground_force1_vz	ground_force1_px	ground_force1_py	ground_force1_pz	ground_force2_vx	ground_force2_vy	ground_force2_vz	ground_force2_px	ground_force2_py	ground_force2_pz	ground_torque1_x	ground_torque1_y	ground_torque1_z	ground_torque2_x	ground_torque2_y	ground_torque2_z	
15.98160600000000	-6.92076800000000	43.54941800000000	-9.08502600000000	0.25262400000000	0.00000000000000	0.08272100000000	-45.54598600000000	772.91615200000001	-47.19039300000000	0.06832900000000	0.00000000000000	-0.07637300000000	0.00000000000000	-4.91833900000000	0.00000000000000	0.00000000000000	-10.91196900000000	0.00000000000000	
15.98326900000000	-7.49666800000000	51.20224500000000	-10.21209300000000	0.25834700000000	0.00000000000000	0.08399500000000	-46.35247400000000	770.18579799999998	-46.90287500000000	0.06738000000000	0.00000000000000	-0.07626600000000	0.00000000000000	-5.61507600000000	0.00000000000000	0.00000000000000	-10.92511800000000	0.00000000000000	
15.98494000000000	-7.91632800000000	58.99180000000000	-11.23468200000000	0.26357000000000	0.00000000000000	0.08512000000000	-47.18700800000000	767.35580700000003	-46.60308900000000	0.06643400000000	0.00000000000000	-0.07615700000000	0.00000000000000	-6.27232800000000	0.00000000000000	0.00000000000000	-10.94422100000000	0.00000000000000	
15.98660600000000	-8.16068100000000	66.82040700000000	-12.12870400000000	0.26837400000000	0.00000000000000	0.08612200000000	-48.04844800000000	764.42251999999996	-46.29066400000000	0.06549000000000	0.00000000000000	-0.07604600000000	0.00000000000000	-6.87546000000000	0.00000000000000	0.00000000000000	-10.96913100000000	0.00000000000000	
15.98827300000000	-8.21907100000000	74.61294100000001	-12.87819300000000	0.27282600000000	0.00000000000000	0.08701900000000	-48.93551000000000	761.38219300000003	-45.96522000000000	0.06455100000000	0.00000000000000	-0.07593300000000	0.00000000000000	-7.41397300000000	0.00000000000000	0.00000000000000	-10.99967700000000	0.00000000000000	
15.98994300000000	-8.08904400000000	82.31928600000001	-13.47541000000000	0.27697500000000	0.00000000000000	0.08782800000000	-49.84676500000000	758.23100799999997	-45.62636800000000	0.06361700000000	0.00000000000000	-0.07581700000000	0.00000000000000	-7.88171900000000	0.00000000000000	0.00000000000000	-11.03566000000000	0.00000000000000	
15.99160600000000	-7.77550200000000	89.91431700000000	-13.92025800000000	0.28086300000000	0.00000000000000	0.08856100000000	-50.78064800000000	754.96509100000003	-45.27371900000000	0.06269100000000	0.00000000000000	-0.07569900000000	0.00000000000000	-8.27673100000000	0.00000000000000	0.00000000000000	-11.07685900000000	0.00000000000000	
15.99327100000000	-7.28940300000000	97.39583000000000	-14.21916800000000	0.28452300000000	0.00000000000000	0.08922800000000	-51.73545100000000	751.58052499999997	-44.90687900000000	0.06177100000000	0.00000000000000	-0.07557800000000	0.00000000000000	-8.60073300000000	0.00000000000000	0.00000000000000	-11.12302500000000	0.00000000000000	
15.99494400000000	-6.64619000000000	104.78093699999999	-14.38364900000000	0.28798200000000	0.00000000000000	0.08983800000000	-52.70933600000000	748.07336599999996	-44.52545900000000	0.06086100000000	0.00000000000000	-0.07545500000000	0.00000000000000	-8.85843500000000	0.00000000000000	0.00000000000000	-11.17388500000000	0.00000000000000	
15.99660900000000	-5.86412100000000	112.10149800000001	-14.42866700000000	0.29126200000000	0.00000000000000	0.09039800000000	-53.70033100000000	744.43966000000000	-44.12907200000000	0.05996100000000	0.00000000000000	-0.07532900000000	0.00000000000000	-9.05670000000000	0.00000000000000	0.00000000000000	-11.22914400000000	0.00000000000000	
15.99828300000000	-4.96266800000000	119.39913799999999	-14.37103000000000	0.29438100000000	0.00000000000000	0.09091300000000	-54.70633800000000	740.67546000000004	-43.71734100000000	0.05907300000000	0.00000000000000	-0.07520100000000	0.00000000000000	-9.20368100000000	0.00000000000000	0.00000000000000	-11.28848200000000	0.00000000000000	
15.99993900000000	-3.96108300000000	126.72032200000000	-14.22790100000000	0.29735500000000	0.00000000000000	0.09139000000000	-55.72513500000000	736.77684499999998	-43.28990000000000	0.05819600000000	0.00000000000000	-0.07506900000000	0.00000000000000	-9.30799100000000	0.00000000000000	0.00000000000000	-11.35155900000000	0.00000000000000	
16.00160500000000	-2.87723600000000	134.11187000000001	-14.01553600000000	0.30019600000000	0.00000000000000	0.09183200000000	-56.75438700000000	732.73993299999995	-42.84639900000000	0.05733300000000	0.00000000000000	-0.07493500000000	0.00000000000000	-9.37798900000000	0.00000000000000	0.00000000000000	-11.41801300000000	0.00000000000000	
16.00327400000000	-1.72675800000000	141.61719700000000	-13.74831600000000	0.30291500000000	0.00000000000000	0.09224400000000	-57.79164500000000	728.56090600000005	-42.38650700000000	0.05648400000000	0.00000000000000	-0.07479800000000	0.00000000000000	-9.42120100000000	0.00000000000000	0.00000000000000	-11.48746100000000	0.00000000000000	
16.00493700000000	-0.52250400000000	149.27343500000001	-13.43808500000000	0.30552000000000	0.00000000000000	0.09262800000000	-58.83435800000000	724.23602500000004	-41.90991400000000	0.05565000000000	0.00000000000000	-0.07465800000000	0.00000000000000	-9.44389700000000	0.00000000000000	0.00000000000000	-11.55950200000000	0.00000000000000	
16.00660700000000	0.72567700000000	157.10949800000000	-13.09379800000000	0.30802000000000	0.00000000000000	0.09298700000000	-59.87987400000000	719.76165100000003	-41.41633600000000	0.05483200000000	0.00000000000000	-0.07451500000000	0.00000000000000	-9.45085200000000	0.00000000000000	0.00000000000000	-11.63371800000000	0.00000000000000	
16.00827400000000	2.01090300000000	165.14507499999999	-12.72145400000000	0.31042000000000	0.00000000000000	0.09332400000000	-60.92545500000000	715.13426500000003	-40.90552000000000	0.05403100000000	0.00000000000000	-0.07436900000000	0.00000000000000	-9.44525100000000	0.00000000000000	0.00000000000000	-11.70967200000000	0.00000000000000	
16.00993900000000	3.32900700000000	173.39045200000001	-12.32425300000000	0.31272600000000	0.00000000000000	0.09364000000000	-61.96827900000000	710.35048800000004	-40.37724300000000	0.05324800000000	0.00000000000000	-0.07422000000000	0.00000000000000	-9.42873700000000	0.00000000000000	0.00000000000000	-11.78691500000000	0.00000000000000	
16.01160200000000	4.67812200000000	181.84703099999999	-11.90294600000000	0.31494100000000	0.00000000000000	0.09393800000000	-63.00544900000000	705.40710500000000	-39.83132100000000	0.05248300000000	0.00000000000000	-0.07406800000000	0.00000000000000	-9.40156700000000	0.00000000000000	0.00000000000000	-11.86498300000000	0.00000000000000	
16.01327100000000	6.05817200000000	190.50837300000001	-11.45629500000000	0.31707000000000	0.00000000000000	0.09422000000000	-64.03400600000001	700.30108199999995	-39.26760600000000	0.05173700000000	0.00000000000000	-0.07391300000000	0.00000000000000	-9.36284600000000	0.00000000000000	0.00000000000000	-11.94339900000000	0.00000000000000	
16.01495200000000	7.47031500000000	199.36159300000000	-10.98160600000000	0.31911500000000	0.00000000000000	0.09448600000000	-65.05093100000001	695.02958999999998	-38.68599500000000	0.05101000000000	0.00000000000000	-0.07375400000000	0.00000000000000	-9.31080900000000	0.00000000000000	0.00000000000000	-12.02167700000000	0.00000000000000	
16.01660800000000	8.91640400000000	208.38893899999999	-10.47527000000000	0.32108000000000	0.00000000000000	0.09473900000000	-66.05316200000000	689.59002399999997	-38.08642800000000	0.05030300000000	0.00000000000000	-0.07359200000000	0.00000000000000	-9.24311400000000	0.00000000000000	0.00000000000000	-12.09932200000000	0.00000000000000	
16.01827400000000	10.39848400000000	217.56940399999999	-9.93328000000000	0.32296500000000	0.00000000000000	0.09497900000000	-67.03759700000001	683.98002799999995	-37.46889400000000	0.04961600000000	0.00000000000000	-0.07342700000000	0.00000000000000	-9.15714000000000	0.00000000000000	0.00000000000000	-12.17583200000000	0.00000000000000	
16.01993800000000	11.91836800000000	226.88024700000000	-9.35167700000000	0.32477300000000	0.00000000000000	0.09520700000000	-68.00110700000000	678.19750799999997	-36.83343000000000	0.04895000000000	0.00000000000000	-0.07325800000000	0.00000000000000	-9.05023900000000	0.00000000000000	0.00000000000000	-12.25069900000000	0.00000000000000	
16.02160600000000	13.47730800000000	236.29833099999999	-8.72692300000000	0.32650500000000	0.00000000000000	0.09542400000000	-68.94054800000001	672.24065900000005	-36.18012600000000	0.04830500000000	0.00000000000000	-0.07308600000000	0.00000000000000	-8.91996500000000	0.00000000000000	0.00000000000000	-12.32341300000000	0.00000000000000	
16.02326800000000	15.07576300000000	245.80121100000000	-8.05617300000000	0.32816200000000	0.00000000000000	0.09563200000000	-69.85276700000000	666.10797300000002	-35.50912700000000	0.04768000000000	0.00000000000000	-0.07291100000000	0.00000000000000	-8.76423400000000	0.00000000000000	0.00000000000000	-12.39346100000000	0.00000000000000	
